<svg viewBox="0 0 1000 640" xmlns="http://www.w3.org/2000/svg" role="img">
<title>Founder Transition Assessment Dashboard mockup</title>
<desc>A mock strategic dashboard showing four assessment outputs: Founder Profile, Opportunity Fit, Enterprise Readiness, and a 90-Day Roadmap, styled as a premium advisory tool.</desc>

<rect width="1000" height="640" fill="none"/>

<rect x="0" y="0" width="1000" height="640" rx="10" fill="#FFFFFF" stroke="#D8D3C8" stroke-width="1.5"/>

<rect x="0" y="0" width="1000" height="64" rx="10" fill="#0D1B2E"/>
<rect x="0" y="54" width="1000" height="10" fill="#0D1B2E"/>
<circle cx="40" cy="32" r="14" fill="#A07820"/>
<text x="40" y="37" text-anchor="middle" font-family="Georgia, serif" font-size="11" font-weight="bold" fill="#0D1B2E" letter-spacing="1">DS</text>
<text x="68" y="29" font-family="Georgia, serif" font-size="15" fill="#FFFFFF" font-weight="bold">Founder Transition Assessment™</text>
<text x="68" y="46" font-family="DM Sans, Arial, sans-serif" font-size="10.5" fill="#C4A96A" letter-spacing="1.5">DEEPSIGHT STRATEGY</text>
<text x="960" y="38" text-anchor="end" font-family="DM Sans, Arial, sans-serif" font-size="11" fill="#C8D0DA">Assessment Complete</text>

<text x="40" y="104" font-family="DM Sans, Arial, sans-serif" font-size="11" fill="#A07820" letter-spacing="2" font-weight="600">YOUR FOUNDER PROFILE</text>
<rect x="40" y="118" width="290" height="190" rx="8" fill="#F5F3EF" stroke="#D8D3C8" stroke-width="1"/>
<circle cx="120" cy="195" r="46" fill="none" stroke="#D8D3C8" stroke-width="10"/>
<path d="M 120 149 A 46 46 0 1 1 81 218" fill="none" stroke="#A07820" stroke-width="10" stroke-linecap="round"/>
<text x="120" y="190" text-anchor="middle" font-family="Georgia, serif" font-size="22" fill="#0D1B2E" font-weight="bold">78%</text>
<text x="120" y="208" text-anchor="middle" font-family="DM Sans, Arial, sans-serif" font-size="10" fill="#5A6A7A">Builder Profile</text>
<text x="200" y="170" font-family="DM Sans, Arial, sans-serif" font-size="12" fill="#0D1B2E" font-weight="500">Enterprise Builder</text>
<text x="200" y="188" font-family="DM Sans, Arial, sans-serif" font-size="11" fill="#5A6A7A">Vision-driven, relationship-rich</text>
<text x="200" y="204" font-family="DM Sans, Arial, sans-serif" font-size="11" fill="#5A6A7A">profile with strong appetite</text>
<text x="200" y="220" font-family="DM Sans, Arial, sans-serif" font-size="11" fill="#5A6A7A">for ownership and equity.</text>

<text x="370" y="104" font-family="DM Sans, Arial, sans-serif" font-size="11" fill="#A07820" letter-spacing="2" font-weight="600">YOUR OPPORTUNITY FIT</text>
<rect x="370" y="118" width="290" height="190" rx="8" fill="#F5F3EF" stroke="#D8D3C8" stroke-width="1"/>
<text x="394" y="150" font-family="DM Sans, Arial, sans-serif" font-size="12" fill="#0D1B2E">Board &amp; Advisory</text>
<rect x="394" y="158" width="242" height="10" rx="5" fill="#E5E1D8"/>
<rect x="394" y="158" width="210" height="10" rx="5" fill="#A07820"/>
<text x="394" y="194" font-family="DM Sans, Arial, sans-serif" font-size="12" fill="#0D1B2E">Operating Ownership</text>
<rect x="394" y="202" width="242" height="10" rx="5" fill="#E5E1D8"/>
<rect x="394" y="202" width="175" height="10" rx="5" fill="#A07820"/>
<text x="394" y="238" font-family="DM Sans, Arial, sans-serif" font-size="12" fill="#0D1B2E">Strategic Investment</text>
<rect x="394" y="246" width="242" height="10" rx="5" fill="#E5E1D8"/>
<rect x="394" y="246" width="145" height="10" rx="5" fill="#A07820"/>
<text x="394" y="282" font-family="DM Sans, Arial, sans-serif" font-size="12" fill="#0D1B2E">Advisory Retainer</text>
<rect x="394" y="290" width="242" height="10" rx="5" fill="#E5E1D8"/>
<rect x="394" y="290" width="120" height="10" rx="5" fill="#A07820"/>

<text x="700" y="104" font-family="DM Sans, Arial, sans-serif" font-size="11" fill="#A07820" letter-spacing="2" font-weight="600">ENTERPRISE READINESS</text>
<rect x="700" y="118" width="260" height="190" rx="8" fill="#0D1B2E"/>
<text x="724" y="155" font-family="Georgia, serif" font-size="38" fill="#FFFFFF" font-weight="bold">82</text>
<text x="724" y="174" font-family="DM Sans, Arial, sans-serif" font-size="11" fill="#C4A96A">Readiness Index</text>
<line x1="724" y1="190" x2="936" y2="190" stroke="#2A4A6A" stroke-width="1"/>
<text x="724" y="214" font-family="DM Sans, Arial, sans-serif" font-size="11" fill="#C8D0DA">Relationship Capital</text>
<text x="936" y="214" text-anchor="end" font-family="DM Sans, Arial, sans-serif" font-size="11" fill="#C4A96A" font-weight="500">Strong</text>
<text x="724" y="240" font-family="DM Sans, Arial, sans-serif" font-size="11" fill="#C8D0DA">Market Positioning</text>
<text x="936" y="240" text-anchor="end" font-family="DM Sans, Arial, sans-serif" font-size="11" fill="#C4A96A" font-weight="500">Strong</text>
<text x="724" y="266" font-family="DM Sans, Arial, sans-serif" font-size="11" fill="#C8D0DA">Operating Structure</text>
<text x="936" y="266" text-anchor="end" font-family="DM Sans, Arial, sans-serif" font-size="11" fill="#FAC775" font-weight="500">Developing</text>
<text x="724" y="292" font-family="DM Sans, Arial, sans-serif" font-size="11" fill="#C8D0DA">Investment Thesis</text>
<text x="936" y="292" text-anchor="end" font-family="DM Sans, Arial, sans-serif" font-size="11" fill="#FAC775" font-weight="500">Developing</text>

<text x="40" y="358" font-family="DM Sans, Arial, sans-serif" font-size="11" fill="#A07820" letter-spacing="2" font-weight="600">YOUR 90-DAY ROADMAP</text>
<rect x="40" y="372" width="920" height="220" rx="8" fill="#F5F3EF" stroke="#D8D3C8" stroke-width="1"/>

<line x1="80" y1="430" x2="920" y2="430" stroke="#D8D3C8" stroke-width="1.5"/>
<circle cx="80" cy="430" r="7" fill="#0D1B2E"/>
<circle cx="500" cy="430" r="7" fill="#0D1B2E"/>
<circle cx="920" cy="430" r="7" fill="#A07820"/>

<text x="80" y="462" text-anchor="middle" font-family="DM Sans, Arial, sans-serif" font-size="11" fill="#0D1B2E" font-weight="500">Days 1–30</text>
<text x="80" y="480" text-anchor="middle" font-family="DM Sans, Arial, sans-serif" font-size="10.5" fill="#5A6A7A">Discover</text>

<text x="500" y="462" text-anchor="middle" font-family="DM Sans, Arial, sans-serif" font-size="11" fill="#0D1B2E" font-weight="500">Days 31–60</text>
<text x="500" y="480" text-anchor="middle" font-family="DM Sans, Arial, sans-serif" font-size="10.5" fill="#5A6A7A">Design</text>

<text x="920" y="462" text-anchor="middle" font-family="DM Sans, Arial, sans-serif" font-size="11" fill="#0D1B2E" font-weight="500">Days 61–90</text>
<text x="920" y="480" text-anchor="middle" font-family="DM Sans, Arial, sans-serif" font-size="10.5" fill="#A07820" font-weight="500">Activate</text>

<rect x="70" y="510" width="240" height="60" rx="6" fill="#FFFFFF" stroke="#D8D3C8" stroke-width="1"/>
<text x="90" y="535" font-family="DM Sans, Arial, sans-serif" font-size="11.5" fill="#0D1B2E" font-weight="500">Founder Strategy Assessment™</text>
<text x="90" y="554" font-family="DM Sans, Arial, sans-serif" font-size="10.5" fill="#5A6A7A">Vision, role fit, opportunity</text>

<rect x="380" y="510" width="240" height="60" rx="6" fill="#FFFFFF" stroke="#D8D3C8" stroke-width="1"/>
<text x="400" y="535" font-family="DM Sans, Arial, sans-serif" font-size="11.5" fill="#0D1B2E" font-weight="500">Enterprise Growth Blueprint™</text>
<text x="400" y="554" font-family="DM Sans, Arial, sans-serif" font-size="10.5" fill="#5A6A7A">Architecture, revenue model</text>

<rect x="690" y="510" width="240" height="60" rx="6" fill="#0D1B2E" stroke="#A07820" stroke-width="1"/>
<text x="710" y="535" font-family="DM Sans, Arial, sans-serif" font-size="11.5" fill="#FFFFFF" font-weight="500">90-Day Founder Roadmap™</text>
<text x="710" y="554" font-family="DM Sans, Arial, sans-serif" font-size="10.5" fill="#C8D0DA">Relationships, execution plan</text>

</svg>
