<svg viewBox="0 0 1600 900" xmlns="http://www.w3.org/2000/svg" role="img">
<title>Abstract architectural artwork representing enterprise systems and structural design</title>
<desc>A geometric composition of layered navy rectangular forms resembling a blueprint or building facade, with gold structural accent lines.</desc>

<rect width="1600" height="900" fill="#F5F3EF"/>

<g opacity="0.9">
<rect x="180" y="560" width="180" height="280" fill="#16324E"/>
<rect x="380" y="460" width="180" height="380" fill="#0F2236"/>
<rect x="580" y="350" width="180" height="490" fill="#0D1B2E"/>
<rect x="780" y="500" width="180" height="340" fill="#122A42"/>
<rect x="980" y="420" width="180" height="420" fill="#0F2236"/>
<rect x="1180" y="600" width="180" height="240" fill="#16324E"/>
</g>

<g stroke="#A07820" stroke-width="0.5" opacity="0.5">
<line x1="180" y1="560" x2="360" y2="560"/>
<line x1="380" y1="460" x2="560" y2="460"/>
<line x1="580" y1="350" x2="760" y2="350"/>
<line x1="780" y1="500" x2="960" y2="500"/>
<line x1="980" y1="420" x2="1160" y2="420"/>
<line x1="1180" y1="600" x2="1360" y2="600"/>
</g>

<g stroke="#C4A96A" stroke-width="0.4" opacity="0.3">
<line x1="220" y1="600" x2="220" y2="800"/>
<line x1="270" y1="600" x2="270" y2="800"/>
<line x1="320" y1="600" x2="320" y2="800"/>
<line x1="420" y1="500" x2="420" y2="800"/>
<line x1="470" y1="500" x2="470" y2="800"/>
<line x1="520" y1="500" x2="520" y2="800"/>
<line x1="620" y1="390" x2="620" y2="800"/>
<line x1="670" y1="390" x2="670" y2="800"/>
<line x1="720" y1="390" x2="720" y2="800"/>
<line x1="820" y1="540" x2="820" y2="800"/>
<line x1="870" y1="540" x2="870" y2="800"/>
<line x1="920" y1="540" x2="920" y2="800"/>
<line x1="1020" y1="460" x2="1020" y2="800"/>
<line x1="1070" y1="460" x2="1070" y2="800"/>
<line x1="1120" y1="460" x2="1120" y2="800"/>
<line x1="1220" y1="640" x2="1220" y2="800"/>
<line x1="1270" y1="640" x2="1270" y2="800"/>
<line x1="1320" y1="640" x2="1320" y2="800"/>
</g>

<circle cx="670" cy="320" r="5" fill="#A07820"/>
<line x1="670" y1="350" x2="670" y2="270" stroke="#A07820" stroke-width="0.5" opacity="0.6"/>

<rect x="0" y="840" width="1600" height="2" fill="#A07820" opacity="0.4"/>

</svg>
