<svg viewBox="0 0 1600 900" xmlns="http://www.w3.org/2000/svg" role="img">
<title>Abstract horizon artwork representing strategic perspective and the next chapter of growth</title>
<desc>A layered geometric composition of navy and gold horizon lines rising toward a bright point, suggesting forward vision and ascent.</desc>

<rect width="1600" height="900" fill="#0D1B2E"/>

<rect x="0" y="0" width="1600" height="900" fill="#0D1B2E"/>

<g opacity="0.9">
<path d="M0,900 L0,620 Q400,560 800,600 Q1200,640 1600,560 L1600,900 Z" fill="#0F2236"/>
<path d="M0,900 L0,700 Q450,660 800,690 Q1150,720 1600,660 L1600,900 Z" fill="#122A42"/>
<path d="M0,900 L0,780 Q500,750 800,770 Q1100,790 1600,750 L1600,900 Z" fill="#16324E"/>
</g>

<g stroke="#A07820" stroke-width="0.6" opacity="0.35" fill="none">
<path d="M0,610 Q400,550 800,590 Q1200,630 1600,550"/>
<path d="M0,695 Q450,655 800,685 Q1150,715 1600,655"/>
</g>

<g opacity="0.55">
<circle cx="1290" cy="240" r="3" fill="#E8D9B0"/>
<circle cx="1340" cy="310" r="2" fill="#E8D9B0"/>
<circle cx="1230" cy="320" r="2" fill="#E8D9B0"/>
<circle cx="1380" cy="250" r="2.5" fill="#E8D9B0"/>
<circle cx="1180" cy="200" r="2" fill="#E8D9B0"/>
<circle cx="220" cy="160" r="2" fill="#E8D9B0"/>
<circle cx="340" cy="220" r="1.6" fill="#E8D9B0"/>
<circle cx="480" cy="140" r="2" fill="#E8D9B0"/>
<circle cx="640" cy="190" r="1.6" fill="#E8D9B0"/>
<circle cx="900" cy="150" r="2" fill="#E8D9B0"/>
<circle cx="1050" cy="200" r="1.8" fill="#E8D9B0"/>
</g>

<circle cx="1290" cy="280" r="46" fill="#A07820" opacity="0.16"/>
<circle cx="1290" cy="280" r="30" fill="#A07820" opacity="0.3"/>
<circle cx="1290" cy="280" r="14" fill="#C4A96A"/>

<g stroke="#A07820" stroke-width="0.5" opacity="0.4">
<line x1="60" y1="100" x2="60" y2="160"/>
<line x1="30" y1="130" x2="90" y2="130"/>
</g>
<g stroke="#A07820" stroke-width="0.5" opacity="0.3">
<line x1="1500" y1="700" x2="1500" y2="760"/>
<line x1="1470" y1="730" x2="1530" y2="730"/>
</g>

</svg>
